<svg width="22" height="24" viewBox="0 0 22 24" fill="none" xmlns="http://www.w3.org/2000/svg">
<path d="M20.1094 13.5L21.6094 13.5L21.6094 10.5L20.1094 10.5L20.1094 13.5ZM0.938959 10.9393C0.353172 11.5251 0.353172 12.4749 0.938959 13.0607L10.4849 22.6066C11.0707 23.1924 12.0204 23.1924 12.6062 22.6066C13.192 22.0208 13.192 21.0711 12.6062 20.4853L4.12094 12L12.6062 3.51472C13.192 2.92893 13.192 1.97918 12.6062 1.3934C12.0204 0.807611 11.0707 0.807611 10.4849 1.3934L0.938959 10.9393ZM20.1094 10.5L1.99962 10.5L1.99962 13.5L20.1094 13.5L20.1094 10.5Z" fill="#1C2AAB"/>
</svg>
